<svg width="1024" height="1024" viewBox="0 0 1024 1024" fill="none" xmlns="http://www.w3.org/2000/svg">
<path d="M1024 0H0V1024H1024V0Z" fill="white"/>
<path d="M358.207 779C365.54 779.667 375.207 780.333 387.207 781C399.207 781 415.54 781 436.207 781C520.874 781 583.874 759.667 625.207 717C667.207 673.667 688.207 613.333 688.207 536C688.207 457.333 667.874 397 627.207 355C586.54 313 523.54 292 438.207 292C400.874 292 374.207 293 358.207 295V779ZM820.207 536C820.207 596 810.874 648.333 792.207 693C773.54 737 746.874 774 712.207 804C678.207 833.333 636.874 855.333 588.207 870C540.207 884 486.874 891 428.207 891C400.207 891 368.54 889.667 333.207 887C297.874 885 264.207 880.333 232.207 873V200C264.207 192.667 298.207 188 334.207 186C370.207 184 402.207 183 430.207 183C488.207 183 541.207 190 589.207 204C637.207 217.333 678.207 238.667 712.207 268C746.874 296.667 773.54 333.333 792.207 378C810.874 422 820.207 474.667 820.207 536Z" fill="#121314"/>
</svg>
