<?xml version="1.0"?><svg width="128" height="128" viewBox="0 0 128 128" xmlns="http://www.w3.org/2000/svg" fill="none"><g clip-path="url(#a)"><path fill="#fff" d="m0 0h128v128h-128z"></path><path d="m44.8 97.4c0.9 0.1 2.1 0.1 3.6 0.2h6.1c10.6 0 18.5-2.6 23.7-8 5.2-5.4 7.8-12.9 7.8-22.6 0-9.8-2.5-17.4-7.6-22.6s-13-7.9-23.6-7.9c-4.7 0-8 0.1-10 0.4v60.5z m57.7-30.4c0 7.5-1.1 14-3.5 19.6-2.3 5.5-5.6 10.2-10 13.9-4.2 3.7-9.4 6.4-15.5 8.3-6 1.7-12.6 2.6-20 2.6-3.5 0-7.4-0.2-11.8-0.5-4.5-0.3-8.7-0.9-12.7-1.8v-84.1c4-0.9 8.3-1.5 12.8-1.7s8.5-0.4 12-0.4c7.2 0 13.9 0.9 19.9 2.6 6 1.7 11.1 4.3 15.3 8 4.4 3.6 7.7 8.2 10 13.8 2.4 5.5 3.5 12 3.5 19.7z" fill="#121314"></path></g><defs><clipPath id="a"><path fill="#fff" d="m0 0h128v128h-128z"></path></clipPath></defs></svg>